<mxfile host="app.diagrams.net" agent="Mozilla/5.0 (Windows NT 10.0; Win64; x64) AppleWebKit/537.36 (KHTML, like Gecko) Chrome/133.0.0.0 Safari/537.36 Edg/133.0.0.0" version="26.0.14">
  <diagram name="PÃ¡gina-1" id="-Ieduc0SyhvWOKV5xbRq">
    <mxGraphModel dx="827" dy="487" grid="1" gridSize="10" guides="1" tooltips="1" connect="1" arrows="1" fold="1" page="1" pageScale="1" pageWidth="827" pageHeight="1169" math="0" shadow="0">
      <root>
        <mxCell id="0" />
        <mxCell id="1" parent="0" />
        <mxCell id="zm5NwZ0ywO8uispxc75O-7" value="" style="rounded=0;whiteSpace=wrap;html=1;" vertex="1" parent="1">
          <mxGeometry x="40" y="390" width="120" height="60" as="geometry" />
        </mxCell>
        <mxCell id="zm5NwZ0ywO8uispxc75O-8" value="pedido" style="rounded=0;whiteSpace=wrap;html=1;" vertex="1" parent="1">
          <mxGeometry x="280" y="390" width="120" height="60" as="geometry" />
        </mxCell>
        <mxCell id="zm5NwZ0ywO8uispxc75O-9" value="" style="rounded=0;whiteSpace=wrap;html=1;" vertex="1" parent="1">
          <mxGeometry x="520" y="390" width="120" height="60" as="geometry" />
        </mxCell>
        <mxCell id="zm5NwZ0ywO8uispxc75O-10" value="" style="rhombus;whiteSpace=wrap;html=1;" vertex="1" parent="1">
          <mxGeometry x="180" y="380" width="80" height="80" as="geometry" />
        </mxCell>
        <mxCell id="zm5NwZ0ywO8uispxc75O-11" value="" style="rhombus;whiteSpace=wrap;html=1;" vertex="1" parent="1">
          <mxGeometry x="420" y="380" width="80" height="80" as="geometry" />
        </mxCell>
        <mxCell id="zm5NwZ0ywO8uispxc75O-12" value="Clientes" style="text;html=1;align=center;verticalAlign=middle;whiteSpace=wrap;rounded=0;" vertex="1" parent="1">
          <mxGeometry x="70" y="405" width="60" height="30" as="geometry" />
        </mxCell>
        <mxCell id="zm5NwZ0ywO8uispxc75O-15" value="Produtos" style="text;html=1;align=center;verticalAlign=middle;whiteSpace=wrap;rounded=0;" vertex="1" parent="1">
          <mxGeometry x="550" y="405" width="60" height="30" as="geometry" />
        </mxCell>
        <mxCell id="zm5NwZ0ywO8uispxc75O-33" style="edgeStyle=orthogonalEdgeStyle;rounded=0;orthogonalLoop=1;jettySize=auto;html=1;entryX=0.25;entryY=0;entryDx=0;entryDy=0;" edge="1" parent="1" source="zm5NwZ0ywO8uispxc75O-16" target="zm5NwZ0ywO8uispxc75O-7">
          <mxGeometry relative="1" as="geometry" />
        </mxCell>
        <mxCell id="zm5NwZ0ywO8uispxc75O-16" value="ID cliente" style="ellipse;whiteSpace=wrap;html=1;" vertex="1" parent="1">
          <mxGeometry x="20" y="300" width="100" height="50" as="geometry" />
        </mxCell>
        <mxCell id="zm5NwZ0ywO8uispxc75O-19" value="" style="ellipse;whiteSpace=wrap;html=1;" vertex="1" parent="1">
          <mxGeometry x="20" y="480" width="80" height="40" as="geometry" />
        </mxCell>
        <mxCell id="zm5NwZ0ywO8uispxc75O-20" value="" style="ellipse;whiteSpace=wrap;html=1;" vertex="1" parent="1">
          <mxGeometry x="130" y="480" width="80" height="40" as="geometry" />
        </mxCell>
        <mxCell id="zm5NwZ0ywO8uispxc75O-25" value="" style="edgeStyle=orthogonalEdgeStyle;rounded=0;orthogonalLoop=1;jettySize=auto;html=1;" edge="1" parent="1" source="zm5NwZ0ywO8uispxc75O-21" target="zm5NwZ0ywO8uispxc75O-12">
          <mxGeometry relative="1" as="geometry" />
        </mxCell>
        <mxCell id="zm5NwZ0ywO8uispxc75O-21" value="E-mail" style="text;html=1;align=center;verticalAlign=middle;whiteSpace=wrap;rounded=0;" vertex="1" parent="1">
          <mxGeometry x="30" y="485" width="60" height="30" as="geometry" />
        </mxCell>
        <mxCell id="zm5NwZ0ywO8uispxc75O-26" style="edgeStyle=orthogonalEdgeStyle;rounded=0;orthogonalLoop=1;jettySize=auto;html=1;entryX=0.75;entryY=1;entryDx=0;entryDy=0;" edge="1" parent="1" source="zm5NwZ0ywO8uispxc75O-22" target="zm5NwZ0ywO8uispxc75O-7">
          <mxGeometry relative="1" as="geometry" />
        </mxCell>
        <mxCell id="zm5NwZ0ywO8uispxc75O-22" value="Nome" style="text;html=1;align=center;verticalAlign=middle;whiteSpace=wrap;rounded=0;" vertex="1" parent="1">
          <mxGeometry x="135" y="480" width="70" height="35" as="geometry" />
        </mxCell>
        <mxCell id="zm5NwZ0ywO8uispxc75O-34" style="edgeStyle=orthogonalEdgeStyle;rounded=0;orthogonalLoop=1;jettySize=auto;html=1;entryX=0.25;entryY=0;entryDx=0;entryDy=0;" edge="1" parent="1" source="zm5NwZ0ywO8uispxc75O-23" target="zm5NwZ0ywO8uispxc75O-8">
          <mxGeometry relative="1" as="geometry" />
        </mxCell>
        <mxCell id="zm5NwZ0ywO8uispxc75O-23" value="ID pedidos" style="ellipse;whiteSpace=wrap;html=1;" vertex="1" parent="1">
          <mxGeometry x="260" y="290" width="80" height="40" as="geometry" />
        </mxCell>
        <mxCell id="zm5NwZ0ywO8uispxc75O-36" value="" style="edgeStyle=orthogonalEdgeStyle;rounded=0;orthogonalLoop=1;jettySize=auto;html=1;" edge="1" parent="1" source="zm5NwZ0ywO8uispxc75O-27" target="zm5NwZ0ywO8uispxc75O-8">
          <mxGeometry relative="1" as="geometry" />
        </mxCell>
        <mxCell id="zm5NwZ0ywO8uispxc75O-27" value="ID cliente" style="ellipse;whiteSpace=wrap;html=1;" vertex="1" parent="1">
          <mxGeometry x="270" y="490" width="80" height="37.5" as="geometry" />
        </mxCell>
        <mxCell id="zm5NwZ0ywO8uispxc75O-28" value="ID Produtos&amp;nbsp;" style="ellipse;whiteSpace=wrap;html=1;" vertex="1" parent="1">
          <mxGeometry x="372" y="480" width="84" height="37.5" as="geometry" />
        </mxCell>
        <mxCell id="zm5NwZ0ywO8uispxc75O-35" style="edgeStyle=orthogonalEdgeStyle;rounded=0;orthogonalLoop=1;jettySize=auto;html=1;" edge="1" parent="1" source="zm5NwZ0ywO8uispxc75O-29" target="zm5NwZ0ywO8uispxc75O-8">
          <mxGeometry relative="1" as="geometry" />
        </mxCell>
        <mxCell id="zm5NwZ0ywO8uispxc75O-29" value="Data" style="ellipse;whiteSpace=wrap;html=1;" vertex="1" parent="1">
          <mxGeometry x="360" y="305" width="80" height="40" as="geometry" />
        </mxCell>
        <mxCell id="zm5NwZ0ywO8uispxc75O-40" style="edgeStyle=orthogonalEdgeStyle;rounded=0;orthogonalLoop=1;jettySize=auto;html=1;entryX=0.25;entryY=0;entryDx=0;entryDy=0;" edge="1" parent="1" source="zm5NwZ0ywO8uispxc75O-30" target="zm5NwZ0ywO8uispxc75O-9">
          <mxGeometry relative="1" as="geometry" />
        </mxCell>
        <mxCell id="zm5NwZ0ywO8uispxc75O-30" value="ID produto" style="ellipse;whiteSpace=wrap;html=1;" vertex="1" parent="1">
          <mxGeometry x="500" y="305" width="80" height="40" as="geometry" />
        </mxCell>
        <mxCell id="zm5NwZ0ywO8uispxc75O-31" value="Valor" style="ellipse;whiteSpace=wrap;html=1;" vertex="1" parent="1">
          <mxGeometry x="520" y="490" width="80" height="37.5" as="geometry" />
        </mxCell>
        <mxCell id="zm5NwZ0ywO8uispxc75O-46" style="edgeStyle=orthogonalEdgeStyle;rounded=0;orthogonalLoop=1;jettySize=auto;html=1;" edge="1" parent="1" source="zm5NwZ0ywO8uispxc75O-32" target="zm5NwZ0ywO8uispxc75O-9">
          <mxGeometry relative="1" as="geometry" />
        </mxCell>
        <mxCell id="zm5NwZ0ywO8uispxc75O-32" value="Marca" style="ellipse;whiteSpace=wrap;html=1;" vertex="1" parent="1">
          <mxGeometry x="670" y="400" width="80" height="40" as="geometry" />
        </mxCell>
        <mxCell id="zm5NwZ0ywO8uispxc75O-39" style="edgeStyle=orthogonalEdgeStyle;rounded=0;orthogonalLoop=1;jettySize=auto;html=1;entryX=0.886;entryY=1.015;entryDx=0;entryDy=0;entryPerimeter=0;" edge="1" parent="1" source="zm5NwZ0ywO8uispxc75O-28" target="zm5NwZ0ywO8uispxc75O-8">
          <mxGeometry relative="1" as="geometry" />
        </mxCell>
        <mxCell id="zm5NwZ0ywO8uispxc75O-47" style="edgeStyle=orthogonalEdgeStyle;rounded=0;orthogonalLoop=1;jettySize=auto;html=1;entryX=0.336;entryY=0.992;entryDx=0;entryDy=0;entryPerimeter=0;" edge="1" parent="1" source="zm5NwZ0ywO8uispxc75O-31" target="zm5NwZ0ywO8uispxc75O-9">
          <mxGeometry relative="1" as="geometry" />
        </mxCell>
        <mxCell id="zm5NwZ0ywO8uispxc75O-49" value="&lt;h1 style=&quot;margin-top: 0px;&quot;&gt;Diagrama ER-Projeto Loja&amp;nbsp;&lt;/h1&gt;&lt;p&gt;Desenvolvedo por Ana Beatriz Basilio Cinque&amp;nbsp;&lt;/p&gt;" style="text;html=1;whiteSpace=wrap;overflow=hidden;rounded=0;" vertex="1" parent="1">
          <mxGeometry x="10" y="580" width="360" height="120" as="geometry" />
        </mxCell>
        <mxCell id="zm5NwZ0ywO8uispxc75O-51" value="" style="endArrow=none;html=1;rounded=0;entryX=0;entryY=0.5;entryDx=0;entryDy=0;" edge="1" parent="1" source="zm5NwZ0ywO8uispxc75O-7" target="zm5NwZ0ywO8uispxc75O-10">
          <mxGeometry relative="1" as="geometry">
            <mxPoint x="350" y="470" as="sourcePoint" />
            <mxPoint x="510" y="470" as="targetPoint" />
            <Array as="points" />
          </mxGeometry>
        </mxCell>
        <mxCell id="zm5NwZ0ywO8uispxc75O-52" value="" style="endArrow=none;html=1;rounded=0;exitX=1;exitY=0.5;exitDx=0;exitDy=0;entryX=0;entryY=0.5;entryDx=0;entryDy=0;" edge="1" parent="1" source="zm5NwZ0ywO8uispxc75O-10" target="zm5NwZ0ywO8uispxc75O-8">
          <mxGeometry relative="1" as="geometry">
            <mxPoint x="350" y="470" as="sourcePoint" />
            <mxPoint x="510" y="470" as="targetPoint" />
          </mxGeometry>
        </mxCell>
        <mxCell id="zm5NwZ0ywO8uispxc75O-53" value="" style="endArrow=none;html=1;rounded=0;exitX=1;exitY=0.5;exitDx=0;exitDy=0;entryX=0;entryY=0.5;entryDx=0;entryDy=0;" edge="1" parent="1" source="zm5NwZ0ywO8uispxc75O-8" target="zm5NwZ0ywO8uispxc75O-11">
          <mxGeometry relative="1" as="geometry">
            <mxPoint x="350" y="470" as="sourcePoint" />
            <mxPoint x="510" y="470" as="targetPoint" />
          </mxGeometry>
        </mxCell>
        <mxCell id="zm5NwZ0ywO8uispxc75O-54" value="" style="endArrow=none;html=1;rounded=0;exitX=1;exitY=0.5;exitDx=0;exitDy=0;entryX=0;entryY=0.5;entryDx=0;entryDy=0;" edge="1" parent="1" source="zm5NwZ0ywO8uispxc75O-11" target="zm5NwZ0ywO8uispxc75O-9">
          <mxGeometry relative="1" as="geometry">
            <mxPoint x="350" y="470" as="sourcePoint" />
            <mxPoint x="510" y="470" as="targetPoint" />
          </mxGeometry>
        </mxCell>
      </root>
    </mxGraphModel>
  </diagram>
</mxfile>
